#!OML:ASF G:\ViconDB\ViconDB\414\test\team2\shane.ASF
:FULLY-SPECIFIED
:DEGREES
236
root 5.30033 17.3124 2.06896 -6.56194 1.23792 -4.16312
lowerback 9.57844 -4.80687 -2.33516
upperback 3.45688 -6.51665 4.64306
thorax -0.925978 -3.33247 6.78716
lowerneck -18.8395 -0.39075 -7.37265
upperneck 17.9651 -0.124776 7.74233
head 8.71834 0.269076 3.8543
rclavicle 4.90998e-014 -1.35174e-014
rhumerus -43.2085 5.78357 -86.0913
rradius 31.8651
rwrist 31.2546
rhand -28.2037 -12.6304
rfingers 7.12502
rthumb -1.58269 -42.6043
lclavicle 4.90998e-014 -1.35174e-014
lhumerus -21.2869 -15.3472 94.2298
lradius 31.4973
lwrist -18.2316
lhand -41.8794 6.9458
lfingers 7.12502
lthumb -14.779 36.3989
rfemur -27.7898 -9.8002 20.179
rtibia 42.6024
rfoot -2.91158 4.45215
rtoes -15.4716
lfemur 19.2961 5.66911 -13.3391
ltibia 10.8242
lfoot -13.8468 -15.4902
ltoes -16.4041
237
root 5.30798 17.3164 2.23444 -6.53693 1.21482 -4.03542
lowerback 9.37958 -4.95511 -2.25986
upperback 3.44569 -6.7076 4.71469
thorax -0.803036 -3.43221 6.81433
lowerneck -18.8742 -0.115076 -7.11386
upperneck 18.2178 0.274117 7.28287
head 8.77837 0.423923 3.70811
rclavicle 2.06736e-014 -1.11319e-014
rhumerus -43.3264 5.43959 -85.6244
rradius 32.1974
rwrist 30.6102
rhand -27.7921 -12.6749
rfingers 7.12502
rthumb -1.18513 -42.6513
lclavicle 2.06736e-014 -1.11319e-014
lhumerus -21.0511 -15.5453 94.0718
lradius 31.9804
lwrist -18.3486
lhand -41.8533 6.68428
lfingers 7.12502
lthumb -14.7538 36.1392
rfemur -28.0959 -10.5193 20.3237
rtibia 41.1591
rfoot -2.03001 5.37352
rtoes -15.6889
lfemur 20.6401 5.45397 -13.4693
ltibia 9.11182
lfoot -12.8659 -15.574
ltoes -17.18
238
root 5.30677 17.2821 2.3952 -6.56633 1.33429 -4.04334
lowerback 9.44765 -5.19726 -2.30669
upperback 3.31356 -7.0292 4.91339
thorax -0.902547 -3.59221 7.09087
lowerneck -18.6681 0.226015 -6.77912
upperneck 18.3269 0.759704 6.70056
head 8.74411 0.608665 3.51013
rclavicle -1.22253e-014 -2.14687e-014
rhumerus -43.6966 4.9857 -84.795
rradius 32.4001
rwrist 31.7572
rhand -27.7456 -12.284
rfingers 7.12502
rthumb -1.1402 -42.2607
lclavicle -1.22253e-014 -2.14687e-014
lhumerus -20.9787 -15.7312 93.9667
lradius 32.4843
lwrist -18.0137
lhand -41.7726 6.26921
lfingers 7.12502
lthumb -14.6761 35.7298
rfemur -28.4505 -11.2237 20.6052
rtibia 39.9253
rfoot -1.09419 5.96629
rtoes -16.1295
lfemur 21.9978 5.05841 -13.4399
ltibia 7.4816
lfoot -12.1249 -15.6804
ltoes -17.1581
239
root 5.31475 17.2712 2.56374 -6.52619 1.24128 -3.79783
lowerback 9.19663 -5.36621 -2.45606
upperback 3.30345 -7.27019 4.95606
thorax -0.717081 -3.72161 7.20778
lowerneck -18.5573 0.495212 -6.52889
upperneck 18.373 1.12509 6.36486
head 8.71645 0.759797 3.39665
rclavicle 1.62208e-013 -6.52014e-014
rhumerus -44.0274 6.06428 -85.1558
rradius 32.8117
rwrist 29.9591
rhand -28.1918 -12.8958
rfingers 7.12502
rthumb -1.57119 -42.8698
lclavicle 1.62208e-013 -6.52014e-014
lhumerus -20.9304 -16.2353 93.748
lradius 33.1647
lwrist -17.8455
lhand -41.7123 6.31346
lfingers 7.12502
lthumb -14.618 35.7783
rfemur -28.7855 -11.7974 20.5679
rtibia 38.87
rfoot -0.244565 6.70339
rtoes -14.9685
lfemur 23.756 4.93392 -13.7144
ltibia 4.97442
lfoot -11.0734 -15.8171
ltoes -17.956
240
root 5.31091 17.2478 2.72226 -6.45925 1.17492 -3.86296
lowerback 9.03366 -5.43327 -2.27782
upperback 3.27156 -7.34259 5.10389
thorax -0.65326 -3.75966 7.25254
lowerneck -18.3514 0.714575 -6.45354
upperneck 18.2732 1.44778 6.13204
head 8.62505 0.890357 3.33698
rclavicle 9.95911e-014 -5.32743e-014
rhumerus -44.0191 5.08063 -84.4105
rradius 33.2334
rwrist 28.7885
rhand -27.8098 -12.8318
rfingers 7.12502
rthumb -1.20222 -42.8082
lclavicle 9.95911e-014 -5.32743e-014
lhumerus -20.8332 -17.3984 93.7421
lradius 33.9873
lwrist -17.096
lhand -41.5964 6.43097
lfingers 7.12502
lthumb -14.5063 35.9038
rfemur -29.2315 -12.5962 21.1239
rtibia 37.994
rfoot 0.319679 7.45677
rtoes -15.7843
lfemur 26.5628 4.68895 -13.5483
ltibia 9.54166e-015
lfoot -8.44659 -16.2216
ltoes -18.1089
